<svg id="Layer_1" data-name="Layer 1" xmlns="http://www.w3.org/2000/svg" viewBox="0 0 129.87 131.17"><path d="M1.37,63.55v-.5A16.77,16.77,0,0,1,5.74,52.73a19.36,19.36,0,0,1,14.14-6.9A19.64,19.64,0,0,1,34.3,50.9a19.19,19.19,0,0,1,5.23,7.48c.72,1.83.81,1.91,2.83,1.92h7.85a1.72,1.72,0,0,0,1.09-.13c-.09-.4-.44-.6-.69-.85L24.7,33.39a21.22,21.22,0,0,1-2.42-2.68,5.45,5.45,0,0,1,.86-7.7,5.32,5.32,0,0,1,7.53.43C37,29.67,43.19,36,49.45,42.21l9.17,9.16c.26.26.47.59.87.7.34-.3.2-.7.2-1,0-2.74,0-5.48,0-8.22A2.37,2.37,0,0,0,58,40.19a18.89,18.89,0,0,1-10.33-9.1C44,24,44.29,16.94,48.68,10.18a19.84,19.84,0,0,1,8.64-7.1A15.54,15.54,0,0,1,63,1.89c4.95-.32,9.7.17,13.83,3.32,5.32,4.05,8.22,9.28,8.34,16.06a19.58,19.58,0,0,1-5.52,14.12,18.94,18.94,0,0,1-6.84,4.68c-2.12.86-2.12.87-2.12,3.19,0,2.54,0,5.07,0,7.61a2.47,2.47,0,0,0,.14,1.22A3.45,3.45,0,0,0,72.1,51Q85.38,37.78,98.63,24.51c.47-.47.93-1,1.43-1.39a5.53,5.53,0,0,1,7.8,7.81c-2.21,2.38-4.62,4.56-6.84,6.91-6.9,7.32-14.15,14.29-21.21,21.45-.23.23-.52.41-.6.75,0,.1.07.18.16.19,3.24.14,6.48.07,9.72,0A1.59,1.59,0,0,0,90.62,59a19.86,19.86,0,0,1,3.87-6.49,19.14,19.14,0,0,1,12.6-6.63,19.35,19.35,0,0,1,16.77,5.92,17.45,17.45,0,0,1,5.3,12.51,39.55,39.55,0,0,1-.19,5.22c-.81,5.72-4,9.94-8.64,13.08a20,20,0,0,1-29.51-9.57,2.08,2.08,0,0,0-2.29-1.56c-3.15.09-6.3,0-9.52,0a3.18,3.18,0,0,0,1,1.22l27,27a15.47,15.47,0,0,1,1.12,1.17,5.34,5.34,0,0,1,0,6.79,5.41,5.41,0,0,1-6.7,1.68,11.19,11.19,0,0,1-3.06-2.33Q85.1,93.79,71.83,80.53a4.65,4.65,0,0,0-.92-.85c-.36.17-.21.49-.21.74,0,2.87,0,5.74,0,8.6,0,1.54.19,1.74,1.58,2.31,7.2,3,11.65,8.25,12.73,15.94,1.4,10-4.18,18.36-13.05,21.68-1.37.51-2.86.35-4.27.68H64.45a12.49,12.49,0,0,1-1.5,0h-.49a16.41,16.41,0,0,1-10-4A19.36,19.36,0,0,1,45.23,111,19.89,19.89,0,0,1,57.74,91.47c2-.79,2-.8,2-2.87,0-2.49,0-5,0-7.47,0-.43.15-.91-.2-1.31-.5.11-.74.53-1.06.84l-26,26a19.07,19.07,0,0,1-2.33,2.06,5.44,5.44,0,0,1-7.7-.85,5.33,5.33,0,0,1,.43-7.53c6.49-6.54,13-13,19.55-19.57,3-3,6-6,9-9a1.79,1.79,0,0,0-1.25-.19c-2.79,0-5.57,0-8.35,0A2,2,0,0,0,39.6,73a19,19,0,0,1-9.08,10.35c-7.13,3.7-14.14,3.34-20.9-1a20,20,0,0,1-7.27-9c-.71-1.55-.58-3.24-1-4.83V65.05A9.39,9.39,0,0,1,1.37,63.55Z" style="fill:#312783"/><path d="M74.45,110.12A9.25,9.25,0,1,1,56,110a9.25,9.25,0,1,1,18.5.16Z" style="fill:#e6007e"/><path d="M74.45,21.6a9.25,9.25,0,1,1-9.27-9.4A9.32,9.32,0,0,1,74.45,21.6Z" style="fill:#e6007e"/><path d="M20.87,75.05a9.25,9.25,0,1,1,9.35-9.29A9.2,9.2,0,0,1,20.87,75.05Z" style="fill:#e6007e"/><path d="M109.41,75.05a9.25,9.25,0,1,1,9.38-9.29A9.23,9.23,0,0,1,109.41,75.05Z" style="fill:#e6007e"/></svg>