<svg id="Layer_1" data-name="Layer 1" xmlns="http://www.w3.org/2000/svg" viewBox="0 0 605.26 134.69"><path d="M5.55,64.7v-.5A16.79,16.79,0,0,1,9.92,53.87,19.39,19.39,0,0,1,24.06,47,19.62,19.62,0,0,1,38.48,52a19.23,19.23,0,0,1,5.23,7.48c.72,1.84.82,1.92,2.83,1.92q3.93,0,7.86,0a1.69,1.69,0,0,0,1.08-.13c-.09-.41-.43-.6-.69-.86q-12.94-13-25.91-25.91a20.57,20.57,0,0,1-2.41-2.69,5.45,5.45,0,0,1,.85-7.7,5.33,5.33,0,0,1,7.53.44c6.29,6.23,12.53,12.51,18.79,18.76q4.57,4.59,9.17,9.17c.25.25.46.59.86.69.34-.29.21-.69.21-1,0-2.74-.05-5.49,0-8.23a2.38,2.38,0,0,0-1.76-2.6,18.92,18.92,0,0,1-10.34-9.1c-3.67-7.13-3.33-14.16,1-20.91a19.9,19.9,0,0,1,8.65-7.11A15.65,15.65,0,0,1,67.19,3c5-.31,9.7.18,13.84,3.33a19.69,19.69,0,0,1,8.33,16.05,19.58,19.58,0,0,1-5.51,14.13A19,19,0,0,1,77,41.21c-2.12.87-2.12.87-2.12,3.2V52A2.45,2.45,0,0,0,75,53.23a3.33,3.33,0,0,0,1.26-1q13.27-13.26,26.54-26.53c.47-.47.93-.95,1.42-1.39a5.53,5.53,0,0,1,7.8,7.81c-2.21,2.37-4.62,4.55-6.84,6.91C98.3,46.31,91.05,53.27,84,60.43c-.23.23-.52.42-.59.76,0,.1.06.18.15.18,3.24.15,6.48.08,9.72,0a1.59,1.59,0,0,0,1.54-1.23,19.56,19.56,0,0,1,3.86-6.49,19.1,19.1,0,0,1,12.6-6.63A19.34,19.34,0,0,1,128,53a17.45,17.45,0,0,1,5.3,12.52,37.91,37.91,0,0,1-.19,5.22c-.8,5.72-3.94,9.94-8.64,13.08A20,20,0,0,1,95,74.22a2.08,2.08,0,0,0-2.29-1.56c-3.15.09-6.3,0-9.51,0a3.34,3.34,0,0,0,1,1.22l27,27a15.51,15.51,0,0,1,1.12,1.18,5.34,5.34,0,0,1,0,6.79,5.4,5.4,0,0,1-6.69,1.68,11,11,0,0,1-3.06-2.33L76,81.67a5.33,5.33,0,0,0-.92-.85c-.35.17-.2.5-.2.75,0,2.87,0,5.73,0,8.6,0,1.53.19,1.74,1.58,2.31,7.2,3,11.66,8.25,12.73,15.94,1.4,10-4.18,18.35-13,21.67-1.37.51-2.86.36-4.27.68H68.63a10.57,10.57,0,0,1-1.49,0h-.5a16.4,16.4,0,0,1-10-4,19.36,19.36,0,0,1-7.28-14.57A19.93,19.93,0,0,1,61.92,92.61c2-.79,2-.79,2-2.86q0-3.73,0-7.48c0-.43.14-.9-.21-1.3-.49.11-.74.52-1.05.83l-26,26a18.25,18.25,0,0,1-2.32,2.07,5.45,5.45,0,0,1-7.7-.85,5.33,5.33,0,0,1,.42-7.53c6.49-6.55,13-13,19.55-19.57,3-3,6-6,9-9a1.89,1.89,0,0,0-1.25-.19c-2.78,0-5.57,0-8.35,0a2,2,0,0,0-2.2,1.5A19,19,0,0,1,34.7,84.5c-7.13,3.71-14.14,3.35-20.9-1a19.9,19.9,0,0,1-7.27-9c-.7-1.56-.57-3.24-1-4.83v-3.5A9.27,9.27,0,0,1,5.55,64.7Z" style="fill:#312783"/><path d="M78.63,111.27a9.25,9.25,0,1,1-9.3-9.35A9.21,9.21,0,0,1,78.63,111.27Z" style="fill:#e6007e"/><path d="M78.63,22.75a9.25,9.25,0,1,1-18.49-.22,9.25,9.25,0,1,1,18.49.22Z" style="fill:#e6007e"/><path d="M25.06,76.2a9.25,9.25,0,1,1,9.35-9.29A9.22,9.22,0,0,1,25.06,76.2Z" style="fill:#e6007e"/><path d="M113.59,76.2A9.25,9.25,0,1,1,123,66.91,9.33,9.33,0,0,1,113.59,76.2Z" style="fill:#e6007e"/><text transform="translate(141.43 76.67)" style="font-size:95.76953887939453px;fill:#2d2e83;font-family:GillSansMT, Gill Sans MT"><tspan style="letter-spacing:-0.03515417593259779em">m</tspan><tspan x="70.47" y="0">y</tspan><tspan x="112.42" y="0" style="letter-spacing:-0.08007708298729238em">W</tspan><tspan x="204.54" y="0" style="letter-spacing:-0.04003854149364619em">A</tspan><tspan x="264.58" y="0">CRM</tspan></text><text transform="translate(141.43 130.92) scale(1.03 1)" style="font-size:36.41123962402344px;fill:#2d2e83;font-family:CaviarDreams-BoldItalic, Caviar Dreams;font-weight:700;font-style:italic">#1<tspan x="55.68" y="0" style="letter-spacing:-0.009770651471769403em"> </tspan><tspan x="67.92" y="0" style="letter-spacing:0.000013010188377855399em">CRM TOOLS</tspan></text></svg>